{"asset":{"version":"2.0","generator":"THREE.GLTFExporter"},"scenes":[{"name":"default","nodes":[0]}],"scene":0,"nodes":[{"name":"default","mesh":0}],"bufferViews":[{"buffer":0,"byteOffset":0,"byteLength":1992,"target":34962,"byteStride":12},{"buffer":0,"byteOffset":1992,"byteLength":1992,"target":34962,"byteStride":12},{"buffer":0,"byteOffset":3984,"byteLength":1328,"target":34962,"byteStride":8},{"buffer":0,"byteOffset":5312,"byteLength":492,"target":34963}],"buffers":[{"byteLength":5804,"uri":"data:application/octet-stream;base64,"}],"accessors":[{"bufferView":0,"componentType":5126,"count":166,"max":[30.387292861938477,27.5,22.375],"min":[-0.11954307556152344,-21.375,-0.625],"type":"VEC3"},{"bufferView":1,"componentType":5126,"count":166,"max":[1,1,1],"min":[-1,-0.9998477101325989,-1],"type":"VEC3"},{"bufferView":2,"componentType":5126,"count":166,"max":[0.9166666865348816,0.6342592239379883],"min":[0.31458333134651184,0.10277777910232544],"type":"VEC2"},{"bufferView":3,"componentType":5123,"count":246,"max":[165],"min":[0],"type":"SCALAR"}],"materials":[{"pbrMetallicRoughness":{"metallicFactor":0,"roughnessFactor":1,"baseColorTexture":{"index":0}},"alphaMode":"MASK","alphaCutoff":0.01,"name":"texture_Meja Kotak"}],"textures":[{"sampler":0,"source":0,"name":"texture_Meja Kotak"}],"samplers":[{"magFilter":9728,"minFilter":9728,"wrapS":33071,"wrapT":33071}],"images":[{"mimeType":"image/png","uri":"data:image/png;base64,"}],"meshes":[{"primitives":[{"mode":4,"attributes":{"POSITION":0,"NORMAL":1,"TEXCOORD_0":2},"indices":3,"material":0}]}]}